<svg height="79" viewBox="0 0 180 79" width="180" xmlns="http://www.w3.org/2000/svg"><g fill="#912e48"><path d="m62.005032 30.5759046h41.900499l-2.014206-14.9176386h-36.5234439z"/><path d="m150.855308 15.658266-2.559669 14.9176386h26.457416l2.559668-14.9176386z"/><path d="m174.377737 32.7602552h-26.457416l-3.475444 20.2546602h26.454913z"/><path d="m177.602969 13.9718373 2.397031-13.9718373h-21.555763c-2.831948-.00038199-5.25197 2.04025725-5.729854 4.83159343l-1.568829 9.14024387z"/><path d="m41.4351047 26.0871016c-.9392353-.5405412-1.4575838-1.5960331-1.3111108-2.6697619.2079934-1.3435172 1.3729025-2.3292095 2.7323149-2.3119588h18.2654749l1.25106-5.4471149h-50.5052892l-.6505512 1.606361c-1.0458861 2.8173869-1.47875284 5.4145873-1.47875284 7.1835861-.01368872 1.7470101.16758526 3.4900937.54045794 5.1969029l.2677268.9432992h37.9371412c-3.0976244-2.024215-6.2953336-4.0659448-7.0484717-4.5013136z"/><path d="m145.142968 32.7602552h-83.6283514l-4.5638667 20.2546602h84.6492171z"/><path d="m53.9957464 53.0149154 2.9099654-12.5105992c.4772331-2.1116429-.301494-4.3096-2.0016959-5.6497867-.312765-.250212-1.5137825-1.0533924-3.0801095-2.0867679h-40.6094052c3.8282433 9.9709476 14.1444835 13.82171 17.5448644 16.9043217.6730702.7681508 1.0158606 1.191009 1.0008479 2.1117891.0097993.4165766-.0330763.8327221-.1276081 1.2385494z"/><path d="m148.133002 15.658266h-37.361654l-5.997581 14.9176386h40.752026z"/><path d="m85.5925159 55.887349 3.6030526 22.7692907h9.4204812c2.1924183-.001204 4.1869293-1.2684886 5.1193373-3.2527559l9.165265-19.5165348z"/><path d="m116.691364 55.887349-3.75318 22.7692907h19.423956c2.749817.0004638 5.101345-1.97727 5.572221-4.6864705l3.16268-18.0753138z"/><path d="m56.2976967 55.887349-5.1293457 22.7692907h21.0178067c2.6253932-.0003549 4.9052377-1.8076498 5.5046637-4.3636971l4.3787097-18.4055936z"/><path d="m143.949457 55.887349-3.905809 22.7692907h21.688375c2.754937 0 5.109544-1.9840315 5.577225-4.6989811l3.097624-18.0628032z"/><path d="m22.2913858 55.887349c-2.5421538.0225191-6.4404565.0150127-10.0259943 0h-8.73490039l-3.53049111 22.7617843h39.7511781c4.8335408-.0007229 9.0344268-3.3196091 10.1536023-8.0217963l3.4254021-14.739988z"/><path d="m148.428252 13.9718373 2.449575-13.9718373h-29.882817c-2.374428 0-4.51062 1.44283827-5.397073 3.64558862l-4.148515 10.32624868z"/><path d="m101.663632 13.9718373-1.8865987-13.9718373h-26.2297224c-2.7193602 0-5.0759637 1.88373966-5.6748078 4.53634329l-2.1242998 9.43549401z"/><path d="m62.7631744 13.9718373 2.7223064-11.86004815.4879133-2.11178915h-27.0704346c-7.1835861 0-12.7432965 1.66140758-16.9643726 4.22357831l-3.172688 2.2819333c-2.4841444 2.07515057-4.5443769 4.61029859-6.0676407 7.46632569z"/></g></svg>
