<svg height="80" viewBox="0 0 335 80" width="335" xmlns="http://www.w3.org/2000/svg" xmlns:xlink="http://www.w3.org/1999/xlink"><defs><path id="a" d="m321.173307 0 13.630611 12.8101943-13.630611 12.8034663-.000059-10.0640341h-26.199929v63.0096051h-6.147278v-63.0096051h-27.182498v-5.57097122h59.529705z"/></defs><g fill="#922e48"><path d="m29.9679829 80c19.4023479 0 27.7588047-9.2209178 27.7588047-19.5944504 0-9.316969-3.9381003-16.905016-27.9509071-20.8431163-17.0010673-2.7854856-19.78655286-7.1077908-19.78655286-13.5432231 0-8.2604055 7.58804696-12.0064034 18.44183566-12.0064034 16.1366062 0 19.4023479 7.0117396 20.9391675 12.3906084h6.2433298c-.7684098-6.4354323-5.4749199-17.86552833-27.0864461-17.86552833-14.2155816 0-24.78121663 6.81963713-24.78121663 18.05763073 0 9.4130203 5.2828175 15.1760939 24.20490933 18.3457844 19.4023479 3.2657418 23.4364994 8.2604056 23.4364994 16.040555 0 7.3959445-6.2433298 13.6392743-21.2273212 13.6392743-14.5997866 0-21.0352188-6.5314835-23.8207044-15.6563501h-6.339381c2.30522946 12.7748133 12.0064034 21.0352188 29.9679829 21.0352188zm39.5731057-1.4407684v-29.2956243c0-3.5731057-.0184611-7.4877407-.0639675-11.4205598l-.0091478-.7613311-.009837-.7612642c-.1103508-8.2447852-.3444757-16.3860872-.7815088-21.4431843h.0960513c2.2283884 5.5709712 8.5926659 20.1568879 15.0823125 34.8746361l.6716256 1.5226318c4.4782924 10.1491568 8.9504375 20.2153255 12.1009178 27.2846958h5.0907153c10.757737-22.7641409 25.549626-54.7491996 28.911419-63.778015h.096051c-.3381 6.0012807-.378672 16.3167215-.383541 27.7389675l-.000279.7804669c-.000039.1303511-.000073.2608358-.000104.3914492l-.000281 34.8671314h5.955177v-68.58057632h-8.740662c-9.701174 21.32337242-24.493063 53.59658482-27.9509073 60.89647812h-.0960512c-1.4724653-3.4357524-9.5990715-21.971286-18.0650389-40.7351079l-.6964672-1.5424401c-2.9040489-6.4264274-5.8276081-12.8318437-8.5170425-18.61893012h-8.452508v68.58057632zm75.4002134 0 10.373533-23.5325507h34.578441l10.757738 23.5325507h6.627535l-31.600854-68.58057632h-6.627535l-30.448239 68.58057632zm42.550694-29.1035219h-29.871932c7.876201-17.8655283 13.062967-30.2561366 14.407684-34.3863394h.096051c1.53682 4.3223053 5.955176 13.7353255 15.368197 34.3863394zm28.527214 29.1035219v-31.2166489h21.419424c13.159018 0 17.769477 3.361793 17.769477 15.1760939v2.3052295c0 .9636615-.011151 1.9644941-.021754 2.9732484l-.009987 1.0103116c-.004469.5053928-.007825 1.0103286-.008607 1.5111511l.00013.4993161c.006764 3.0689908.129971 5.9352203.712577 7.7412983h6.147278c-.64591-2.260684-.748881-6.8967243-.765296-11.6262051l-.001408-.4894964-.0012-.7342665c-.000085-.0815281-.000155-.1630256-.000213-.2444806l-.000293-4.0026699c0-11.8143009-5.667022-15.65635-11.045891-17.0010672 9.220918-2.2091782 12.870865-8.3564568 12.870865-16.3287087 0-12.3906083-9.605123-18.15368192-22.764141-18.15368192h-30.256137v68.58057632zm22.572039-36.6915688h-22.572039v-26.3180363h23.052295c11.622198 0 17.769477 4.1302027 17.769477 12.678762 0 9.4130203-6.147279 13.6392743-18.249733 13.6392743z" fill="#922e48"/><use fill="none" xlink:href="#a"/><g fill="#922e48"><use xlink:href="#a"/><path d="m309.676272 79.9715404c3.628602 0 6.118819-2.5613661 6.118819-6.189968 0-3.4863038-2.454643-6.189968-6.118819-6.189968-3.664177 0-6.225543 2.4546425-6.225543 6.189968s2.66809 6.189968 6.225543 6.189968zm0-1.1383849c-2.917112 0-4.94486-2.0988972-4.94486-5.0515831 0-2.5257915 1.316258-5.0515831 4.909285-5.0515831 2.988261 0 4.802562 2.1344717 4.802562 5.0871576 0 2.8459623-1.56528 5.0160086-4.766987 5.0160086zm-1.316258-2.0277482v-2.5257915h1.245109c.889363 0 1.209534.1778726 1.209534.9605123l.000173.1569971c.001304.4352141.012382 1.1571678.10655 1.4082821h1.245109c-.035575-.2490217-.071149-1.0672358-.071149-1.3874066 0-.7114906-.106724-1.4941302-.747065-1.6720028.569192-.1778727.889363-.7826397.889363-1.4585557 0-1.0672359-.924938-1.7431519-2.27677-1.7431519h-2.845962v6.261117zm1.387407-3.5218783h-1.387407v-1.7431519h1.351832c.996087 0 1.245109.3913198 1.245109.8893632 0 .6759161-.533618.8537887-1.209534.8537887z"/></g></g></svg>
