<svg height="40" viewBox="0 0 60 40" width="60" xmlns="http://www.w3.org/2000/svg"><path d="m10.4581368 33.7528093c1.99805.0480094 3.876 1.0132568 5.064 2.6379851l27.942.0001951c1.158-1.6307735 3.0119-2.6379851 5.034-2.6379851 3.4379-.0119047 6.252 2.7999583 6.252 6.2291241l-.0001368.0178715h-3.006l.0002283-.8811171-.858-1.522808-1.51795-.8633742h-1.72795l-1.524.8633742-.86405 1.5167627-.0002783.8871624-33.5880548.0010435c.0000431-.0063488.0000646-.012702.0000646-.0190594 0-.6895103-.26992-1.3310081-.792-1.85245-.50995-.4916051-1.17579997-.7373228-1.86579997-.7373228l-3.138005.0001231c-.07207 0-.125975-.0480094-.198045-.0960198-.048047 0-.096095 0-.15-.0240048-.0240235 0-.0240235-.0240047-.0240235-.0480094-.07207-.0480094-.07207-.0960198-.125975-.1738889-.048047-.0720136-.096095-.1498826-.096095-.2459025 0 0-.0240235 0-.0240235-.0240047 0-.0480094.048047-.0720136.048047-.0960198.0240235-.0960199 0-.1978901.048047-.2697089 1.158-1.6547547 3.05995-2.6619663 5.11199997-2.6619663zm9.1007132-19.9910643c2.05205 0 3.954 1.0072116 5.112 2.6619663.048047.0718188.0240235.1736891.048047.2697089 0 .0240062.048047.0480104.048047.0960199 0 .0240047-.0240235.0240047-.0240235.0240047 0 .0960198-.048048.1738889-.096095.2459025-.053905.077869-.053905.1258795-.125975.1738889 0 .0240047 0 .0480094-.0240235.0480094-.053905.0240047-.101953.0240047-.15.0240047-.0540525.0360078-.0978872.0720151-.1468308.0877682l-.0512142.0082516-3.138005-.0001231c-.69 0-1.35585.2457177-1.8658.7373229-.52208.5214418-.792 1.1629397-.792 1.85245 0 .7193869.27596 1.3848759.76795 1.8764811.448065.4478989 1.032372.7111542 1.6652952.7768257l.2126548.0145549h3.084c.053905 0 .077928.0240047.125975.0480094.0540525.0180035.1114013.0090018.1671019.0236296l.0549681.0243798.048047.0720136c.0480465.0298567.0480465.0778671.07207.1258765.077928.09582.125975.173689.125975.2697089 0 .0240047.0240235.0240047.0240235.0480094 0 .0538628-.0480465.1018733-.07207.1498827-.0240235.0720136 0 .1498807-.048047.1978901 0 .0240042-.048047.0480089-.048047.0720136-.0240235 0-.0240235.0240047-.0240235.0240047-1.15805 1.5827611-3.036 2.5419603-5.01 2.5419603-1.9339913-.0459249-3.6924983-.9530434-4.8551845-2.4326931l-.1548155-.205292-14.48885-.0001751v-7.219l14.49485.0007301c1.188-1.6247282 3.06595-2.5899757 5.064-2.6379851zm21.96.0001952c1.9341826 0 3.7144733.9215319 4.8790534 2.4288433l.1549466.2091418 13.44715-.0009253v7.219l-13.45315.0001751c-1.158 1.6247282-3.01195 2.6379851-5.034 2.6379851-3.43195 0-6.246-2.8117491-6.246-6.2650959 0-3.4291658 2.8141-6.2410288 6.252-6.2291241zm.8578085 2.9796963h-1.72795l-1.51795.8633742-.858 1.522808v1.7265985l.86405 1.5167627 1.51795.8633742h1.72795l1.51795-.8633742.86405-1.5167627v-1.7326438l-.86405-1.5167627zm12.3733415-16.7246365.0001368-.017c0 3.45334685-2.81405 6.26509593-6.246 6.26509593-2.02205 0-3.876-1.01325687-5.034-2.63798509h-27.942c-1.158 1.60069703-2.9881 2.58997267-5.01 2.63798509-1.97399997 0-3.85194997-.95919918-5.00999997-2.54196026 0 0 0-.02400471-.0240235-.02400471 0-.02400471-.048047-.04800942-.048047-.07201363-.048047-.04800942-.0240235-.12587647-.048047-.1978901-.0240235-.04800942-.07207-.09601984-.07207-.14988267 0-.02400471.0240235-.02400471.0240235-.04800942 0-.09601984.048047-.17388889.125975-.26970889.0240235-.04800942.0240235-.09601984.07207-.12587646l.048047-.07201364c.07207-.04800942.15-.02400471.22207-.04800942.048047-.02400471.07207-.04800942.125975-.04800942h3.084c.71405-.02400471 1.38009997-.29371509 1.87794997-.79138053.4880634-.48768158.7635313-1.14648252.7678973-1.85926677l33.5880429-.00007001.0002783.8463529.86405 1.51676274 1.51795.86337418h1.72795l1.51795-.86337418.86405-1.51676274-.0002283-.8463529z" fill="#fff" fill-rule="evenodd" transform="translate(-.000043)"/></svg>
